<svg xmlns="http://www.w3.org/2000/svg" xmlns:xlink="http://www.w3.org/1999/xlink" viewBox="0,0,256,256" width="50px" height="50px" fill-rule="nonzero"><g fill="#ffffff" fill-rule="nonzero" stroke="none" stroke-width="1" stroke-linecap="butt" stroke-linejoin="miter" stroke-miterlimit="10" stroke-dasharray="" stroke-dashoffset="0" font-family="none" font-weight="none" font-size="none" text-anchor="none" style="mix-blend-mode: normal"><g transform="scale(5.12,5.12)"><path d="M14,4c-5.51133,0 -10,4.48867 -10,10v22c0,5.51133 4.48867,10 10,10h22c5.51133,0 10,-4.48867 10,-10v-22c0,-5.51133 -4.48867,-10 -10,-10zM13,16h24c0.18,0 0.34977,0.02031 0.50977,0.07031l-9.83008,9.82031c-1.48,1.48 -3.88914,1.48 -5.36914,0l-9.82031,-9.82031c0.16,-0.05 0.32977,-0.07031 0.50977,-0.07031zM11.07031,17.49023l7.51953,7.50977l-7.51953,7.50977c-0.05,-0.16 -0.07031,-0.32977 -0.07031,-0.50977v-14c0,-0.18 0.02031,-0.34977 0.07031,-0.50977zM38.92969,17.49023c0.05,0.16 0.07031,0.32977 0.07031,0.50977v14c0,0.18 -0.02031,0.34977 -0.07031,0.50977l-7.5293,-7.50977zM20,26.41016l0.89063,0.90039c1.13,1.13 2.61961,1.68945 4.09961,1.68945c1.49,0 2.96961,-0.55945 4.09961,-1.68945l0.90039,-0.90039l7.51953,7.51953c-0.16,0.05 -0.32977,0.07031 -0.50977,0.07031h-24c-0.18,0 -0.34977,-0.02031 -0.50977,-0.07031z"></path></g></g></svg>